name rise30.9205peak61.366fall85.3838.mot
datacolumns 19
datarows 12
range 16.27660200000000 16.29494400000000
endheader
time	ground_force1_vx	ground_force1_vy	ground_force1_vz	ground_force1_px	ground_force1_py	ground_force1_pz	ground_force2_vx	ground_force2_vy	ground_force2_vz	ground_force2_px	ground_force2_py	ground_force2_pz	ground_torque1_x	ground_torque1_y	ground_torque1_z	ground_torque2_x	ground_torque2_y	ground_torque2_z	
16.27660200000000	66.00328900000000	804.83246499999996	56.12959600000000	0.35955200000000	0.00000000000000	0.10384300000000	0.00000000000000	0.00000000000000	0.00000000000000	0.00000000000000	0.00000000000000	0.00000000000000	0.00000000000000	25.59731500000000	0.00000000000000	0.00000000000000	0.00000000000000	0.00000000000000	
16.27827700000000	65.26363900000000	805.91685299999995	56.12324600000000	0.35822000000000	0.00000000000000	0.10387500000000	0.00000000000000	0.00000000000000	0.00000000000000	0.00000000000000	0.00000000000000	0.00000000000000	0.00000000000000	25.57295800000000	0.00000000000000	0.00000000000000	0.00000000000000	0.00000000000000	
16.27993900000000	64.52882500000000	806.85998900000004	56.10847300000000	0.35691200000000	0.00000000000000	0.10390700000000	0.00000000000000	0.00000000000000	0.00000000000000	0.00000000000000	0.00000000000000	0.00000000000000	0.00000000000000	25.54414700000000	0.00000000000000	0.00000000000000	0.00000000000000	0.00000000000000	
16.28160600000000	63.79898800000000	807.66165000000001	56.08518200000000	0.35562800000000	0.00000000000000	0.10394000000000	0.00000000000000	0.00000000000000	0.00000000000000	0.00000000000000	0.00000000000000	0.00000000000000	0.00000000000000	25.51092000000000	0.00000000000000	0.00000000000000	0.00000000000000	0.00000000000000	
16.28327300000000	63.07419400000000	808.32177999999999	56.05326100000000	0.35436800000000	0.00000000000000	0.10397300000000	0.00000000000000	0.00000000000000	0.00000000000000	0.00000000000000	0.00000000000000	0.00000000000000	0.00000000000000	25.47330300000000	0.00000000000000	0.00000000000000	0.00000000000000	0.00000000000000	
16.28493700000000	62.35445000000000	808.84050000000002	56.01258600000000	0.35313100000000	0.00000000000000	0.10400700000000	0.00000000000000	0.00000000000000	0.00000000000000	0.00000000000000	0.00000000000000	0.00000000000000	0.00000000000000	25.43131000000000	0.00000000000000	0.00000000000000	0.00000000000000	0.00000000000000	
16.28662000000000	61.63970000000000	809.21811900000000	55.96302500000000	0.35191900000000	0.00000000000000	0.10404100000000	0.00000000000000	0.00000000000000	0.00000000000000	0.00000000000000	0.00000000000000	0.00000000000000	0.00000000000000	25.38494900000000	0.00000000000000	0.00000000000000	0.00000000000000	0.00000000000000	
16.28827700000000	60.92983400000000	809.45514700000001	55.90443800000000	0.35072900000000	0.00000000000000	0.10407600000000	0.00000000000000	0.00000000000000	0.00000000000000	0.00000000000000	0.00000000000000	0.00000000000000	0.00000000000000	25.33421800000000	0.00000000000000	0.00000000000000	0.00000000000000	0.00000000000000	
16.28993500000000	60.22469300000000	809.55230100000006	55.83668700000000	0.34956300000000	0.00000000000000	0.10411100000000	0.00000000000000	0.00000000000000	0.00000000000000	0.00000000000000	0.00000000000000	0.00000000000000	0.00000000000000	25.27911200000000	0.00000000000000	0.00000000000000	0.00000000000000	0.00000000000000	
16.29161800000000	59.52407100000000	809.51051299999995	55.75963400000000	0.34841900000000	0.00000000000000	0.10414600000000	0.00000000000000	0.00000000000000	0.00000000000000	0.00000000000000	0.00000000000000	0.00000000000000	0.00000000000000	25.21962300000000	0.00000000000000	0.00000000000000	0.00000000000000	0.00000000000000	
16.29327700000000	58.82772400000000	809.33094300000005	55.67314800000000	0.34729800000000	0.00000000000000	0.10418100000000	0.00000000000000	0.00000000000000	0.00000000000000	0.00000000000000	0.00000000000000	0.00000000000000	0.00000000000000	25.15574100000000	0.00000000000000	0.00000000000000	0.00000000000000	0.00000000000000	
16.29494400000000	58.13537100000000	809.01497700000004	55.57710900000000	0.34619700000000	0.00000000000000	0.10421700000000	0.00000000000000	0.00000000000000	0.00000000000000	0.00000000000000	0.00000000000000	0.00000000000000	0.00000000000000	25.08745600000000	0.00000000000000	0.00000000000000	0.00000000000000	0.00000000000000	
